<svg width="40" height="40" viewBox="0 0 40 40" fill="none" xmlns="http://www.w3.org/2000/svg">
  <!-- Shield background -->
  <path d="M20 2L4 8V18C4 27.5 10.5 36 20 38C29.5 36 36 27.5 36 18V8L20 2Z" fill="url(#gradient1)"/>
  
  <!-- Inner shield detail -->
  <path d="M20 6L8 10.5V18C8 25.5 13 32.5 20 34C27 32.5 32 25.5 32 18V10.5L20 6Z" fill="url(#gradient2)" opacity="0.3"/>
  
  <!-- Lock icon -->
  <rect x="16" y="18" width="8" height="8" rx="1" fill="white" opacity="0.9"/>
  <path d="M18 18V15C18 13.9 18.9 13 20 13C21.1 13 22 13.9 22 15V18" stroke="white" stroke-width="1.5" stroke-linecap="round" opacity="0.9"/>
  <circle cx="20" cy="22" r="1" fill="#0a0e27"/>
  
  <!-- Gradient definitions -->
  <defs>
    <linearGradient id="gradient1" x1="4" y1="2" x2="36" y2="38" gradientUnits="userSpaceOnUse">
      <stop offset="0%" stop-color="#00d4ff"/>
      <stop offset="100%" stop-color="#7c3aed"/>
    </linearGradient>
    <linearGradient id="gradient2" x1="8" y1="6" x2="32" y2="34" gradientUnits="userSpaceOnUse">
      <stop offset="0%" stop-color="#ffffff"/>
      <stop offset="100%" stop-color="#00d4ff"/>
    </linearGradient>
  </defs>
</svg>
